<svg width="35" height="24" viewBox="0 0 35 24" fill="none" xmlns="http://www.w3.org/2000/svg">
<path d="M32.5714 15.4286H29.1429V18.8571H30.3429C30.6268 18.8571 30.8571 19.05 30.8571 19.2857V20.1429C30.8571 20.3786 30.6268 20.5714 30.3429 20.5714H3.94286C3.65893 20.5714 3.42857 20.3786 3.42857 20.1429V19.2857C3.42857 19.05 3.65893 18.8571 3.94286 18.8571H5.14286V15.4286H1.71429C0.766071 15.4286 0 16.1946 0 17.1429V22.2857C0 23.2339 0.766071 24 1.71429 24H32.5714C33.5196 24 34.2857 23.2339 34.2857 22.2857V17.1429C34.2857 16.1946 33.5196 15.4286 32.5714 15.4286ZM27.4286 18.8571V1.73036C27.4286 0.771429 26.6518 0 25.6982 0H8.59286C7.63393 0 6.85714 0.776786 6.85714 1.73036V18.8571H27.4286ZM11.3143 9.10714L12.6804 7.75179C12.9054 7.52679 13.2696 7.52679 13.4946 7.75714L15.7071 9.98571L20.8071 4.92857C21.0321 4.70357 21.3964 4.70357 21.6214 4.93393L22.9768 6.3C23.2018 6.525 23.2018 6.88929 22.9714 7.11429L16.0982 13.9286C15.8732 14.1536 15.5089 14.1536 15.2839 13.9232L11.3143 9.92143C11.0839 9.69643 11.0893 9.33214 11.3143 9.10714V9.10714Z" fill="white"/>
</svg>
