<svg width="250" height="334" viewBox="0 0 250 334" fill="none" xmlns="http://www.w3.org/2000/svg">
<rect width="250" height="333.33" fill="#D9D9D9"/>
<path d="M220.821 187.241L208.571 175.414C209.965 172.652 210.697 169.623 210.714 166.552C210.714 162.46 209.457 158.459 207.103 155.057C204.748 151.655 201.402 149.003 197.486 147.437C193.57 145.871 189.262 145.461 185.105 146.259C180.948 147.058 177.13 149.028 174.133 151.922C171.137 154.815 169.096 158.502 168.269 162.515C167.442 166.529 167.866 170.689 169.488 174.469C171.11 178.25 173.857 181.481 177.381 183.754C180.905 186.028 185.047 187.241 189.286 187.241C192.47 187.226 195.609 186.519 198.471 185.172L210.714 196.993V249.31H167.857V228.62C167.842 215.821 162.569 203.551 153.196 194.5C143.822 185.45 131.113 180.359 117.857 180.345H75C61.7438 180.359 49.0349 185.45 39.6614 194.5C30.2878 203.551 25.0151 215.821 25 228.62V263.103H225V196.993C225.005 195.182 224.639 193.387 223.921 191.713C223.204 190.04 222.151 188.52 220.821 187.241V187.241ZM39.2857 228.62C39.2971 219.478 43.0634 210.714 49.7587 204.25C56.454 197.785 65.5315 194.149 75 194.138H117.857C127.326 194.149 136.403 197.785 143.098 204.25C149.794 210.714 153.56 219.478 153.571 228.62V249.31H39.2857V228.62Z" fill="black"/>
<path d="M96.4283 83.7931C103.492 83.7931 110.397 85.8155 116.27 89.6045C122.143 93.3935 126.721 98.779 129.424 105.08C132.127 111.381 132.834 118.314 131.456 125.003C130.078 131.692 126.677 137.836 121.682 142.659C116.687 147.481 110.324 150.766 103.396 152.096C96.4679 153.427 89.287 152.744 82.761 150.134C76.2351 147.524 70.6573 143.104 66.733 137.433C62.8086 131.763 60.714 125.096 60.714 118.276C60.714 109.13 64.4768 100.36 71.1745 93.8929C77.8722 87.4261 86.9563 83.7931 96.4283 83.7931M96.4283 70C86.5392 70 76.8722 72.8313 68.6498 78.1359C60.4273 83.4406 54.0187 90.9802 50.2343 99.8015C46.4499 108.623 45.4598 118.329 47.389 127.694C49.3183 137.059 54.0803 145.661 61.073 152.412C68.0656 159.164 76.9747 163.761 86.6738 165.624C96.3728 167.487 106.426 166.531 115.562 162.877C124.699 159.223 132.508 153.035 138.002 145.096C143.496 137.158 146.428 127.824 146.428 118.276C146.428 105.472 141.16 93.1931 131.784 84.1397C122.407 75.0862 109.689 70 96.4283 70V70Z" fill="black"/>
</svg>
