<svg width="83" height="85" viewBox="0 0 83 85" fill="none" xmlns="http://www.w3.org/2000/svg">
<path d="M16.943 44.7008H9.9042L2 57.7046H79.1251L71.2209 44.7008H68.111" stroke="#32CD32" stroke-width="3" stroke-linecap="round" stroke-linejoin="round"/>
<path d="M49.7021 22.0488L25.7752 14.9473L14.7065 52.2359H65.8745L72.8001 28.9055L56.8946 24.184" stroke="#32CD32" stroke-width="3" stroke-linecap="round" stroke-linejoin="round"/>
<path d="M58.6622 12.0852C57.1477 15.1143 51.2008 20.1391 50.6832 20.9135C50.1655 21.688 45.81 25.4935 48.7258 27.932C51.6416 30.3706 56.2256 24.4966 57.7037 23.4997C59.1818 22.5028 66.4188 20.5455 67.9717 19.2534C69.5246 17.9613 71.664 16.5924 72.218 15.2255L69.189 5.62074C69.189 5.62074 56.1508 5.39831 54.4138 5.62074C52.6769 5.84316 45.3894 15.5975 46.4733 18.5113C47.7674 21.9852 52.2482 19.3343 52.2482 19.3343" stroke="#32CD32" stroke-width="3" stroke-linecap="round" stroke-linejoin="round"/>
<path d="M69.1888 5.6215L76.0233 2L80.8601 14.9472L72.2178 15.2242" stroke="#32CD32" stroke-width="3" stroke-linecap="round" stroke-linejoin="round"/>
<path d="M4.07 74.02V78.34C4.07 78.8133 4.19333 79.1767 4.44 79.43C4.68667 79.6767 5.03333 79.8 5.48 79.8C5.93333 79.8 6.28333 79.6767 6.53 79.43C6.77667 79.1767 6.9 78.8133 6.9 78.34V74.02H8.31V78.33C8.31 78.9233 8.18 79.4267 7.92 79.84C7.66667 80.2467 7.32333 80.5533 6.89 80.76C6.46333 80.9667 5.98667 81.07 5.46 81.07C4.94 81.07 4.46667 80.9667 4.04 80.76C3.62 80.5533 3.28667 80.2467 3.04 79.84C2.79333 79.4267 2.67 78.9233 2.67 78.33V74.02H4.07ZM11.0627 76.32C11.2427 76.0267 11.476 75.7967 11.7627 75.63C12.056 75.4633 12.3893 75.38 12.7627 75.38V76.85H12.3927C11.9527 76.85 11.6193 76.9533 11.3927 77.16C11.1727 77.3667 11.0627 77.7267 11.0627 78.24V81H9.66266V75.46H11.0627V76.32ZM16.7756 75.38C17.4356 75.38 17.969 75.59 18.3756 76.01C18.7823 76.4233 18.9856 77.0033 18.9856 77.75V81H17.5856V77.94C17.5856 77.5 17.4756 77.1633 17.2556 76.93C17.0356 76.69 16.7356 76.57 16.3556 76.57C15.969 76.57 15.6623 76.69 15.4356 76.93C15.2156 77.1633 15.1056 77.5 15.1056 77.94V81H13.7056V75.46H15.1056V76.15C15.2923 75.91 15.529 75.7233 15.8156 75.59C16.109 75.45 16.429 75.38 16.7756 75.38ZM19.957 78.21C19.957 77.65 20.067 77.1533 20.287 76.72C20.5136 76.2867 20.817 75.9533 21.197 75.72C21.5836 75.4867 22.0136 75.37 22.487 75.37C22.9003 75.37 23.2603 75.4533 23.567 75.62C23.8803 75.7867 24.1303 75.9967 24.317 76.25V75.46H25.727V81H24.317V80.19C24.137 80.45 23.887 80.6667 23.567 80.84C23.2536 81.0067 22.8903 81.09 22.477 81.09C22.0103 81.09 21.5836 80.97 21.197 80.73C20.817 80.49 20.5136 80.1533 20.287 79.72C20.067 79.28 19.957 78.7767 19.957 78.21ZM24.317 78.23C24.317 77.89 24.2503 77.6 24.117 77.36C23.9836 77.1133 23.8036 76.9267 23.577 76.8C23.3503 76.6667 23.107 76.6 22.847 76.6C22.587 76.6 22.347 76.6633 22.127 76.79C21.907 76.9167 21.727 77.1033 21.587 77.35C21.4536 77.59 21.387 77.8767 21.387 78.21C21.387 78.5433 21.4536 78.8367 21.587 79.09C21.727 79.3367 21.907 79.5267 22.127 79.66C22.3536 79.7933 22.5936 79.86 22.847 79.86C23.107 79.86 23.3503 79.7967 23.577 79.67C23.8036 79.5367 23.9836 79.35 24.117 79.11C24.2503 78.8633 24.317 78.57 24.317 78.23ZM30.8771 75.15V76.9H33.2271V78.01H30.8771V79.86H33.5271V81H29.4771V74.01H33.5271V75.15H30.8771ZM36.1994 73.6V81H34.7994V73.6H36.1994ZM42.7326 78.11C42.7326 78.31 42.7192 78.49 42.6926 78.65H38.6426C38.6759 79.05 38.8159 79.3633 39.0626 79.59C39.3092 79.8167 39.6126 79.93 39.9726 79.93C40.4926 79.93 40.8626 79.7067 41.0826 79.26H42.5926C42.4326 79.7933 42.1259 80.2333 41.6726 80.58C41.2192 80.92 40.6626 81.09 40.0026 81.09C39.4692 81.09 38.9892 80.9733 38.5626 80.74C38.1426 80.5 37.8126 80.1633 37.5726 79.73C37.3392 79.2967 37.2226 78.7967 37.2226 78.23C37.2226 77.6567 37.3392 77.1533 37.5726 76.72C37.8059 76.2867 38.1326 75.9533 38.5526 75.72C38.9726 75.4867 39.4559 75.37 40.0026 75.37C40.5292 75.37 40.9992 75.4833 41.4126 75.71C41.8326 75.9367 42.1559 76.26 42.3826 76.68C42.6159 77.0933 42.7326 77.57 42.7326 78.11ZM41.2826 77.71C41.2759 77.35 41.1459 77.0633 40.8926 76.85C40.6392 76.63 40.3292 76.52 39.9626 76.52C39.6159 76.52 39.3226 76.6267 39.0826 76.84C38.8492 77.0467 38.7059 77.3367 38.6526 77.71H41.2826ZM45.3845 76.61V79.29C45.3845 79.4767 45.4278 79.6133 45.5145 79.7C45.6078 79.78 45.7611 79.82 45.9745 79.82H46.6245V81H45.7445C44.5645 81 43.9745 80.4267 43.9745 79.28V76.61H43.3145V75.46H43.9745V74.09H45.3845V75.46H46.6245V76.61H45.3845ZM49.0314 76.32C49.2114 76.0267 49.4447 75.7967 49.7314 75.63C50.0247 75.4633 50.3581 75.38 50.7314 75.38V76.85H50.3614C49.9214 76.85 49.5881 76.9533 49.3614 77.16C49.1414 77.3667 49.0314 77.7267 49.0314 78.24V81H47.6314V75.46H49.0314V76.32ZM54.1344 81.09C53.601 81.09 53.121 80.9733 52.6944 80.74C52.2677 80.5 51.931 80.1633 51.6844 79.73C51.4444 79.2967 51.3244 78.7967 51.3244 78.23C51.3244 77.6633 51.4477 77.1633 51.6944 76.73C51.9477 76.2967 52.291 75.9633 52.7244 75.73C53.1577 75.49 53.641 75.37 54.1744 75.37C54.7077 75.37 55.191 75.49 55.6244 75.73C56.0577 75.9633 56.3977 76.2967 56.6444 76.73C56.8977 77.1633 57.0244 77.6633 57.0244 78.23C57.0244 78.7967 56.8944 79.2967 56.6344 79.73C56.381 80.1633 56.0344 80.5 55.5944 80.74C55.161 80.9733 54.6744 81.09 54.1344 81.09ZM54.1344 79.87C54.3877 79.87 54.6244 79.81 54.8444 79.69C55.071 79.5633 55.251 79.3767 55.3844 79.13C55.5177 78.8833 55.5844 78.5833 55.5844 78.23C55.5844 77.7033 55.4444 77.3 55.1644 77.02C54.891 76.7333 54.5544 76.59 54.1544 76.59C53.7544 76.59 53.4177 76.7333 53.1444 77.02C52.8777 77.3 52.7444 77.7033 52.7444 78.23C52.7444 78.7567 52.8744 79.1633 53.1344 79.45C53.401 79.73 53.7344 79.87 54.1344 79.87ZM54.2344 74.16L52.7444 75V73.98L54.2344 73.17L55.7144 73.98V75L54.2344 74.16ZM61.1213 75.38C61.7813 75.38 62.3147 75.59 62.7213 76.01C63.128 76.4233 63.3313 77.0033 63.3313 77.75V81H61.9313V77.94C61.9313 77.5 61.8213 77.1633 61.6013 76.93C61.3813 76.69 61.0813 76.57 60.7013 76.57C60.3147 76.57 60.008 76.69 59.7813 76.93C59.5613 77.1633 59.4513 77.5 59.4513 77.94V81H58.0513V75.46H59.4513V76.15C59.638 75.91 59.8747 75.7233 60.1613 75.59C60.4547 75.45 60.7747 75.38 61.1213 75.38ZM65.3727 74.8C65.126 74.8 64.9193 74.7233 64.7527 74.57C64.5927 74.41 64.5127 74.2133 64.5127 73.98C64.5127 73.7467 64.5927 73.5533 64.7527 73.4C64.9193 73.24 65.126 73.16 65.3727 73.16C65.6193 73.16 65.8227 73.24 65.9827 73.4C66.1493 73.5533 66.2327 73.7467 66.2327 73.98C66.2327 74.2133 66.1493 74.41 65.9827 74.57C65.8227 74.7233 65.6193 74.8 65.3727 74.8ZM66.0627 75.46V81H64.6627V75.46H66.0627ZM67.0859 78.23C67.0859 77.6567 67.2025 77.1567 67.4359 76.73C67.6692 76.2967 67.9925 75.9633 68.4059 75.73C68.8192 75.49 69.2925 75.37 69.8259 75.37C70.5125 75.37 71.0792 75.5433 71.5259 75.89C71.9792 76.23 72.2825 76.71 72.4359 77.33H70.9259C70.8459 77.09 70.7092 76.9033 70.5159 76.77C70.3292 76.63 70.0959 76.56 69.8159 76.56C69.4159 76.56 69.0992 76.7067 68.8659 77C68.6325 77.2867 68.5159 77.6967 68.5159 78.23C68.5159 78.7567 68.6325 79.1667 68.8659 79.46C69.0992 79.7467 69.4159 79.89 69.8159 79.89C70.3825 79.89 70.7525 79.6367 70.9259 79.13H72.4359C72.2825 79.73 71.9792 80.2067 71.5259 80.56C71.0725 80.9133 70.5059 81.09 69.8259 81.09C69.2925 81.09 68.8192 80.9733 68.4059 80.74C67.9925 80.5 67.6692 80.1667 67.4359 79.74C67.2025 79.3067 67.0859 78.8033 67.0859 78.23ZM73.1015 78.21C73.1015 77.65 73.2115 77.1533 73.4315 76.72C73.6582 76.2867 73.9615 75.9533 74.3415 75.72C74.7282 75.4867 75.1582 75.37 75.6315 75.37C76.0448 75.37 76.4048 75.4533 76.7115 75.62C77.0248 75.7867 77.2748 75.9967 77.4615 76.25V75.46H78.8715V81H77.4615V80.19C77.2815 80.45 77.0315 80.6667 76.7115 80.84C76.3982 81.0067 76.0348 81.09 75.6215 81.09C75.1548 81.09 74.7282 80.97 74.3415 80.73C73.9615 80.49 73.6582 80.1533 73.4315 79.72C73.2115 79.28 73.1015 78.7767 73.1015 78.21ZM77.4615 78.23C77.4615 77.89 77.3948 77.6 77.2615 77.36C77.1282 77.1133 76.9482 76.9267 76.7215 76.8C76.4948 76.6667 76.2515 76.6 75.9915 76.6C75.7315 76.6 75.4915 76.6633 75.2715 76.79C75.0515 76.9167 74.8715 77.1033 74.7315 77.35C74.5982 77.59 74.5315 77.8767 74.5315 78.21C74.5315 78.5433 74.5982 78.8367 74.7315 79.09C74.8715 79.3367 75.0515 79.5267 75.2715 79.66C75.4982 79.7933 75.7382 79.86 75.9915 79.86C76.2515 79.86 76.4948 79.7967 76.7215 79.67C76.9482 79.5367 77.1282 79.35 77.2615 79.11C77.3948 78.8633 77.4615 78.57 77.4615 78.23Z" fill="#32CD32"/>
</svg>
